<svg xmlns="http://www.w3.org/2000/svg" viewBox="0 0 64 64">
  <rect width="64" height="64" rx="12" fill="#022c22"/>
  <ellipse cx="22" cy="52" rx="4" ry="2.5" fill="#86efac"/>
  <ellipse cx="42" cy="52" rx="4" ry="2.5" fill="#86efac"/>
  <ellipse cx="32" cy="42" rx="18" ry="12" fill="#86efac"/>
  <circle cx="50" cy="30" r="11" fill="#86efac"/>
  <circle cx="46" cy="28" r="2.4" fill="#022c22"/>
  <circle cx="54" cy="28" r="2.4" fill="#022c22"/>
  <circle cx="47" cy="27" r="1" fill="#f8fafc"/>
  <circle cx="55" cy="27" r="1" fill="#f8fafc"/>
  <path d="M48 33 Q50 35 52 33" stroke="#022c22" stroke-width="1" fill="none" stroke-linecap="round"/>
  <path d="M 14 42 A 18 16 0 0 1 50 42 Z" fill="#10b981"/>
  <path d="M 17 38 Q 26 30 36 32" stroke="#a7f3d0" stroke-width="1.5" fill="none" stroke-linecap="round" opacity="0.8"/>
  <g fill="#34d399" opacity="0.8">
    <polygon points="22,36 27,33 32,36 32,42 27,45 22,42"/>
    <polygon points="34,36 39,33 44,36 44,42 39,45 34,42"/>
  </g>
  <path d="M 14 42 A 18 16 0 0 1 50 42" stroke="#047857" stroke-width="1.5" fill="none"/>
</svg>
